<?xml version="1.0" encoding="UTF-8" standalone="no"?>
<!-- Generator: Adobe Illustrator 13.0.2, SVG Export Plug-In . SVG Version: 6.00 Build 14948)  -->

<svg
   xmlns:dc="http://purl.org/dc/elements/1.1/"
   xmlns:cc="http://creativecommons.org/ns#"
   xmlns:rdf="http://www.w3.org/1999/02/22-rdf-syntax-ns#"
   xmlns:svg="http://www.w3.org/2000/svg"
   xmlns="http://www.w3.org/2000/svg"
   xmlns:sodipodi="http://sodipodi.sourceforge.net/DTD/sodipodi-0.dtd"
   xmlns:inkscape="http://www.inkscape.org/namespaces/inkscape"
   enable-background="new 0 0 800 800"
   height="55"
   id="Layer_1"
   version="1.1"
   viewBox="0 0 55 55"
   width="55"
   x="0px"
   xml:space="preserve"
   y="0px"
   sodipodi:version="0.32"
   inkscape:version="0.48.4 r9939"
   sodipodi:docname="cellgame.svg"
   inkscape:output_extension="org.inkscape.output.svg.inkscape"><metadata
     id="metadata36"><rdf:RDF><cc:Work
         rdf:about=""><dc:format>image/svg+xml</dc:format><dc:type
           rdf:resource="http://purl.org/dc/dcmitype/StillImage" /></cc:Work></rdf:RDF></metadata><defs
     id="defs34"><inkscape:perspective
       sodipodi:type="inkscape:persp3d"
       inkscape:vp_x="0 : 400 : 1"
       inkscape:vp_y="0 : 1000 : 0"
       inkscape:vp_z="800 : 400 : 1"
       inkscape:persp3d-origin="400 : 266.66667 : 1"
       id="perspective38" /></defs><sodipodi:namedview
     inkscape:window-height="744"
     inkscape:window-width="1366"
     inkscape:pageshadow="2"
     inkscape:pageopacity="0.0"
     guidetolerance="10.0"
     gridtolerance="10.0"
     objecttolerance="10.0"
     borderopacity="1.0"
     bordercolor="#666666"
     pagecolor="#ffffff"
     id="base"
     showgrid="false"
     inkscape:zoom="9.88"
     inkscape:cx="36.666403"
     inkscape:cy="29.2363"
     inkscape:window-x="0"
     inkscape:window-y="24"
     inkscape:current-layer="Layer_1"
     inkscape:window-maximized="1" /><g
     id="g3775"
     transform="matrix(0.06939345,0,0,0.06939335,-0.24717946,51.511804)"><path
       inkscape:connector-curvature="0"
       style="fill:#ffffff;stroke:#000000;stroke-width:20;stroke-miterlimit:4;stroke-dasharray:none"
       id="path3"
       d="m 786.144,-346.016 c 0,213.323 -172.96,386.283 -386.284,386.283 -213.353,0 -386.298,-172.96 -386.298,-386.283 0,-213.354 172.946,-386.3 386.298,-386.3 213.324,0 386.284,172.945 386.284,386.3 z" /><path
       inkscape:connector-curvature="0"
       style="fill:#ffffff;stroke:#000000;stroke-width:20;stroke-miterlimit:4;stroke-dasharray:none"
       id="path5"
       d="m 680.646,-346.016 c 0,155.063 -125.721,280.784 -280.786,280.784 -155.086,0 -280.791,-125.721 -280.791,-280.784 0,-155.088 125.704,-280.801 280.791,-280.801 155.065,0 280.786,125.713 280.786,280.801 z" /><path
       inkscape:connector-curvature="0"
       style="fill:#ffffff;stroke:#000000;stroke-width:20;stroke-miterlimit:4;stroke-dasharray:none"
       id="path7"
       d="m 458.889,-624.192 c 0,33.113 -26.837,59.958 -59.951,59.958 -33.116,0 -59.952,-26.845 -59.952,-59.958 0,-33.107 26.836,-59.952 59.952,-59.952 33.114,0 59.951,26.845 59.951,59.952 z" /><path
       inkscape:connector-curvature="0"
       style="fill:#ffffff;stroke:#000000;stroke-width:20;stroke-miterlimit:4;stroke-dasharray:none"
       id="path9"
       d="m 458.628,-68.419 c 0,33.101 -26.838,59.952 -59.937,59.952 -33.115,0 -59.959,-26.852 -59.959,-59.952 0,-33.129 26.845,-59.966 59.959,-59.966 33.099,0 59.937,26.837 59.937,59.966 z" /><path
       inkscape:connector-curvature="0"
       style="fill:#ffffff;stroke:#000000;stroke-width:20;stroke-miterlimit:4;stroke-dasharray:none"
       id="path11"
       d="m 219.836,-482.278 c 0,33.107 -26.836,59.952 -59.951,59.952 -33.107,0 -59.951,-26.845 -59.951,-59.952 0,-33.113 26.843,-59.951 59.951,-59.951 33.115,0 59.951,26.837 59.951,59.951 z" /><path
       inkscape:connector-curvature="0"
       style="fill:#ffffff;stroke:#000000;stroke-width:20;stroke-miterlimit:4;stroke-dasharray:none"
       id="path13"
       d="m 220.345,-206.541 c 0,33.101 -26.845,59.952 -59.952,59.952 -33.115,0 -59.959,-26.852 -59.959,-59.952 0,-33.114 26.845,-59.951 59.959,-59.951 33.107,0 59.952,26.837 59.952,59.951 z" /><path
       inkscape:connector-curvature="0"
       style="fill:#ffffff;stroke:#000000;stroke-width:20;stroke-miterlimit:4;stroke-dasharray:none"
       id="path15"
       d="m 695.4,-481.77 c 0,33.114 -26.836,59.951 -59.951,59.951 -33.1,0 -59.95,-26.836 -59.95,-59.951 0,-33.107 26.851,-59.951 59.95,-59.951 33.115,0 59.951,26.844 59.951,59.951 z" /><path
       inkscape:connector-curvature="0"
       style="fill:#ffffff;stroke:#000000;stroke-width:20;stroke-miterlimit:4;stroke-dasharray:none"
       id="path17"
       d="m 698.709,-207.295 c 0,33.101 -26.851,59.951 -59.966,59.951 -33.116,0 -59.952,-26.851 -59.952,-59.951 0,-33.1 26.836,-59.95 59.952,-59.95 33.115,0 59.966,26.85 59.966,59.95 z" /><path
       inkscape:connector-curvature="0"
       style="fill:#ffffff;stroke:#000000;stroke-width:20;stroke-miterlimit:4;stroke-dasharray:none"
       id="path19"
       d="m 326.337,-421.802 c 0,33.113 -26.845,59.951 -59.959,59.951 -33.107,0 -59.944,-26.837 -59.944,-59.951 0,-33.116 26.836,-59.961 59.944,-59.961 33.114,0 59.959,26.846 59.959,59.961 z" /><path
       inkscape:connector-curvature="0"
       style="fill:#ffffff;stroke:#000000;stroke-width:20;stroke-miterlimit:4;stroke-dasharray:none"
       id="path21"
       d="m 457.872,-501.735 c 0,33.107 -26.852,59.945 -59.95,59.945 -33.115,0 -59.953,-26.838 -59.953,-59.945 0,-33.123 26.838,-59.959 59.953,-59.959 33.099,-0.001 59.95,26.836 59.95,59.959 z" /><path
       inkscape:connector-curvature="0"
       style="fill:#ffffff;stroke:#000000;stroke-width:20;stroke-miterlimit:4;stroke-dasharray:none"
       id="path23"
       d="m 589.425,-420.287 c 0,33.107 -26.853,59.959 -59.951,59.959 -33.115,0 -59.967,-26.852 -59.967,-59.959 0,-33.106 26.852,-59.959 59.967,-59.959 33.098,-0.001 59.951,26.853 59.951,59.959 z" /><path
       inkscape:connector-curvature="0"
       style="fill:#ffffff;stroke:#000000;stroke-width:20;stroke-miterlimit:4;stroke-dasharray:none"
       id="path25"
       d="m 328.106,-268.77 c 0,33.115 -26.836,59.936 -59.951,59.936 -33.116,0 -59.952,-26.82 -59.952,-59.936 0,-33.131 26.836,-59.967 59.952,-59.967 33.115,0.001 59.951,26.837 59.951,59.967 z" /><path
       inkscape:connector-curvature="0"
       style="fill:#ffffff;stroke:#000000;stroke-width:20;stroke-miterlimit:4;stroke-dasharray:none"
       id="path27"
       d="m 458.135,-190.86 c 0,33.116 -26.853,59.952 -59.967,59.952 -33.1,0 -59.936,-26.836 -59.936,-59.952 0,-33.131 26.836,-59.952 59.936,-59.952 33.114,0 59.967,26.821 59.967,59.952 z" /><path
       inkscape:connector-curvature="0"
       style="fill:#ffffff;stroke:#000000;stroke-width:20;stroke-miterlimit:4;stroke-dasharray:none"
       id="path29"
       d="m 591.688,-267.77 c 0,33.115 -26.821,59.952 -59.952,59.952 -33.116,0 -59.952,-26.837 -59.952,-59.952 0,-33.115 26.836,-59.936 59.952,-59.936 33.13,0.001 59.952,26.821 59.952,59.936 z" /><path
       inkscape:connector-curvature="0"
       style="fill:#ffffff;stroke:#000000;stroke-width:20;stroke-miterlimit:4;stroke-dasharray:none"
       id="path31"
       d="m 490.772,-344.924 c 0,50.719 -41.116,91.82 -91.835,91.82 -50.719,0 -91.828,-41.102 -91.828,-91.82 0,-50.705 41.109,-91.82 91.828,-91.82 50.719,0 91.835,41.116 91.835,91.82 z" /></g><path
     style="fill:#000080"
     d=""
     id="path2427"
     inkscape:connector-curvature="0" /></svg>