<?xml version="1.0" ?><!-- Generator: Adobe Illustrator 13.0.2, SVG Export Plug-In . SVG Version: 6.00 Build 14948)  --><!DOCTYPE svg  PUBLIC '-//W3C//DTD SVG 1.1//EN'  'http://www.w3.org/Graphics/SVG/1.1/DTD/svg11.dtd' [
	<!ENTITY stroke_color "#000000">
	<!ENTITY fill_color "#ffffff">
]><svg enable-background="new 0 0 800 800" height="55" id="Layer_1" inkscape:output_extension="org.inkscape.output.svg.inkscape" inkscape:version="0.48.4 r9939" sodipodi:docname="cellgame.svg" sodipodi:version="0.32" version="1.1" viewBox="0 0 55 55" width="55" x="0px" xml:space="preserve" xmlns="http://www.w3.org/2000/svg" xmlns:cc="http://creativecommons.org/ns#" xmlns:dc="http://purl.org/dc/elements/1.1/" xmlns:inkscape="http://www.inkscape.org/namespaces/inkscape" xmlns:rdf="http://www.w3.org/1999/02/22-rdf-syntax-ns#" xmlns:sodipodi="http://sodipodi.sourceforge.net/DTD/sodipodi-0.dtd" xmlns:svg="http://www.w3.org/2000/svg" y="0px"><metadata id="metadata36"><rdf:RDF><cc:Work rdf:about=""><dc:format>image/svg+xml</dc:format><dc:type rdf:resource="http://purl.org/dc/dcmitype/StillImage"/></cc:Work></rdf:RDF></metadata><defs id="defs34"><inkscape:perspective id="perspective38" inkscape:persp3d-origin="400 : 266.66667 : 1" inkscape:vp_x="0 : 400 : 1" inkscape:vp_y="0 : 1000 : 0" inkscape:vp_z="800 : 400 : 1" sodipodi:type="inkscape:persp3d"/></defs><sodipodi:namedview bordercolor="#666666" borderopacity="1.0" gridtolerance="10.0" guidetolerance="10.0" id="base" inkscape:current-layer="Layer_1" inkscape:cx="34.895148" inkscape:cy="23.176445" inkscape:pageopacity="0.0" inkscape:pageshadow="2" inkscape:window-height="744" inkscape:window-maximized="1" inkscape:window-width="1366" inkscape:window-x="0" inkscape:window-y="24" inkscape:zoom="9.88" objecttolerance="10.0" pagecolor="#ffffff" showgrid="false"/><path d="m 54.306065,27.500595 c 0,14.803197 -12.002291,26.805471 -26.80558,26.805471 -14.8053,0 -26.80655049,-12.002274 -26.80655049,-26.805471 0,-14.805349 12.00131949,-26.8066515 26.80655049,-26.8066515 14.803289,0 26.80558,12.0012325 26.80558,26.8066515 z" id="path3" inkscape:connector-curvature="0" style="fill:&fill_color;;stroke:&stroke_color;;stroke-width:2.788;stroke-miterlimit:4;stroke-dasharray:none"/><path d="m 46.985195,27.500595 c 0,10.760341 -8.724214,19.484542 -19.48471,19.484542 -10.761952,0 -19.4850558,-8.724201 -19.4850558,-19.484542 0,-10.762076 8.7230338,-19.4857225 19.4850558,-19.4857225 10.760496,0 19.48471,8.7236465 19.48471,19.4857225 z" id="path5" inkscape:connector-curvature="0" style="fill:&fill_color;;stroke:&stroke_color;;stroke-width:2.788;stroke-miterlimit:4;stroke-dasharray:none"/><path d="m 31.596711,8.1970301 c 0,2.2978219 -1.862312,4.1606869 -4.160206,4.1606869 -2.298034,0 -4.160276,-1.862865 -4.160276,-4.1606869 0,-2.2974057 1.862242,-4.1602701 4.160276,-4.1602701 2.297894,0 4.160206,1.8628644 4.160206,4.1602701 z" id="path7" inkscape:connector-curvature="0" style="fill:&fill_color;;stroke:&stroke_color;;stroke-width:2.788;stroke-miterlimit:4;stroke-dasharray:none"/><path d="m 31.5786,46.76398 c 0,2.29699 -1.862382,4.160271 -4.159235,4.160271 -2.297965,0 -4.160762,-1.863351 -4.160762,-4.160271 0,-2.298932 1.862867,-4.161241 4.160762,-4.161241 2.296853,0 4.159235,1.862309 4.159235,4.161241 z" id="path9" inkscape:connector-curvature="0" style="fill:&fill_color;;stroke:&stroke_color;;stroke-width:2.788;stroke-miterlimit:4;stroke-dasharray:none"/><path d="m 15.007999,18.044918 c 0,2.297406 -1.862243,4.16027 -4.160207,4.16027 -2.2974087,0 -4.1602064,-1.862864 -4.1602064,-4.16027 0,-2.297822 1.8627284,-4.160201 4.1602064,-4.160201 2.297964,0 4.160207,1.86231 4.160207,4.160201 z" id="path11" inkscape:connector-curvature="0" style="fill:&fill_color;;stroke:&stroke_color;;stroke-width:2.788;stroke-miterlimit:4;stroke-dasharray:none"/><path d="m 15.04332,37.179232 c 0,2.296989 -1.862867,4.16027 -4.160276,4.16027 -2.2979639,0 -4.1607617,-1.86335 -4.1607617,-4.16027 0,-2.297891 1.8628672,-4.160201 4.1607617,-4.160201 2.297409,0 4.160276,1.86231 4.160276,4.160201 z" id="path13" inkscape:connector-curvature="0" style="fill:&fill_color;;stroke:&stroke_color;;stroke-width:2.788;stroke-miterlimit:4;stroke-dasharray:none"/><path d="m 48.009026,18.08017 c 0,2.297891 -1.862243,4.1602 -4.160207,4.1602 -2.296923,0 -4.160137,-1.862239 -4.160137,-4.1602 0,-2.297406 1.863283,-4.160201 4.160137,-4.160201 2.297964,0 4.160207,1.862795 4.160207,4.160201 z" id="path15" inkscape:connector-curvature="0" style="fill:&fill_color;;stroke:&stroke_color;;stroke-width:2.788;stroke-miterlimit:4;stroke-dasharray:none"/><path d="m 48.238649,37.12691 c 0,2.296989 -1.863284,4.1602 -4.161248,4.1602 -2.298034,0 -4.160276,-1.863281 -4.160276,-4.1602 0,-2.29692 1.862242,-4.160132 4.160276,-4.160132 2.297964,0 4.161248,1.863212 4.161248,4.160132 z" id="path17" inkscape:connector-curvature="0" style="fill:&fill_color;;stroke:&stroke_color;;stroke-width:2.788;stroke-miterlimit:4;stroke-dasharray:none"/><path d="m 22.398471,22.24155 c 0,2.297822 -1.862867,4.160201 -4.160762,4.160201 -2.297409,0 -4.159721,-1.862309 -4.159721,-4.160201 0,-2.29803 1.862243,-4.160894 4.159721,-4.160894 2.297895,0 4.160762,1.862933 4.160762,4.160894 z" id="path19" inkscape:connector-curvature="0" style="fill:&fill_color;;stroke:&stroke_color;;stroke-width:2.788;stroke-miterlimit:4;stroke-dasharray:none"/><path d="m 31.526138,16.694732 c 0,2.297405 -1.863353,4.159784 -4.160137,4.159784 -2.297964,0 -4.160346,-1.862379 -4.160346,-4.159784 0,-2.298516 1.862382,-4.160756 4.160346,-4.160756 2.296854,-7e-5 4.160137,1.86224 4.160137,4.160756 z" id="path21" inkscape:connector-curvature="0" style="fill:&fill_color;;stroke:&stroke_color;;stroke-width:2.788;stroke-miterlimit:4;stroke-dasharray:none"/><path d="m 40.655055,22.346681 c 0,2.297406 -1.863423,4.160756 -4.160207,4.160756 -2.297964,0 -4.161317,-1.86335 -4.161317,-4.160756 0,-2.297336 1.863353,-4.160756 4.161317,-4.160756 2.296784,-6.9e-5 4.160207,1.86342 4.160207,4.160756 z" id="path23" inkscape:connector-curvature="0" style="fill:&fill_color;;stroke:&stroke_color;;stroke-width:2.788;stroke-miterlimit:4;stroke-dasharray:none"/><path d="m 22.521228,32.860953 c 0,2.297961 -1.862243,4.15916 -4.160207,4.15916 -2.298033,0 -4.160276,-1.86113 -4.160276,-4.15916 0,-2.299071 1.862243,-4.161311 4.160276,-4.161311 2.297964,7e-5 4.160207,1.86231 4.160207,4.161311 z" id="path25" inkscape:connector-curvature="0" style="fill:&fill_color;;stroke:&stroke_color;;stroke-width:2.788;stroke-miterlimit:4;stroke-dasharray:none"/><path d="m 31.544389,38.267389 c 0,2.29803 -1.863423,4.16027 -4.161317,4.16027 -2.296923,0 -4.159166,-1.86224 -4.159166,-4.16027 0,-2.299071 1.862243,-4.16027 4.159166,-4.16027 2.297894,0 4.161317,1.861199 4.161317,4.16027 z" id="path27" inkscape:connector-curvature="0" style="fill:&fill_color;;stroke:&stroke_color;;stroke-width:2.788;stroke-miterlimit:4;stroke-dasharray:none"/><path d="m 40.812092,32.930347 c 0,2.29796 -1.861202,4.16027 -4.160276,4.16027 -2.298033,0 -4.160276,-1.86231 -4.160276,-4.16027 0,-2.297961 1.862243,-4.15916 4.160276,-4.15916 2.299005,6.9e-5 4.160276,1.861199 4.160276,4.15916 z" id="path29" inkscape:connector-curvature="0" style="fill:&fill_color;;stroke:&stroke_color;;stroke-width:2.788;stroke-miterlimit:4;stroke-dasharray:none"/><path d="m 33.809183,27.576372 c 0,3.519561 -2.853181,6.371698 -6.372748,6.371698 -3.519566,0 -6.372261,-2.852206 -6.372261,-6.371698 0,-3.51859 2.852695,-6.371697 6.372261,-6.371697 3.519567,0 6.372748,2.853177 6.372748,6.371697 z" id="path31" inkscape:connector-curvature="0" style="fill:&fill_color;;stroke:&stroke_color;;stroke-width:2.788;stroke-miterlimit:4;stroke-dasharray:none"/><path d="" id="path2427" inkscape:connector-curvature="0" style="fill:#000080"/></svg>